# xmcd
#
# Track frame offsets: 
#        183
#        12783
#        25898
#        40085
#        51570
#        61803
#        74118
#        84975
#        95670
#        108140
#        119273
#        133743
#        146605
#        159620
#        173560
#        184905
#        200300
#        209013
#        219168
#        232500
#
# Disc length: 3264 seconds
#
# Revision: 4
# Processed by: cddbd v1.5.2PL0 Copyright (c) Steve Scherf et al.
# Submitted via: ExactAudioCopyFreeDBPlugin 1.0
#
DISCID=160cbe14
DTITLE=Various Artist - Blues Gems - Vol. 1
DYEAR=1989
DGENRE=Blues
TTITLE0=Muddy Waters - I Just Wanna Make Love To You
TTITLE1=Elmore James - Dust My Broom
TTITLE2=Memphis Slim - Blue And Lonesome
TTITLE3=John Lee Hooker - Boom Boom
TTITLE4=Little Milton - Lonely No More
TTITLE5=Otis Spann - I'm Leaving You
TTITLE6=Little Walter - Just Your Fool
TTITLE7=B.b. King - Recession Blues
TTITLE8=John Brim - Ice Cream Man
TTITLE9=Johnny Shines - So Glad I Found You
TTITLE10=Buddy Guy - Broken Hearted Blues
TTITLE11=Doctor Ross - Come Back Baby, Come
TTITLE12=Howlin' Wolf - You Gonna Wreck My Life
TTITLE13=Jimmy Reed - You Don't Have To Go
TTITLE14=Arthur "Big" Crudup - Mean Old Frisco
TTITLE15=Floyd Jones - Dark Road
TTITLE16=Sonny Boy Williamson - Checkin' Up On My Baby
TTITLE17=Magic Sam - All My Whole Life
TTITLE18=Junior Parker - Feelin' Good
TTITLE19=Bo Diddley - I'm A Man
EXTD=Green Line - CD5VIN04
EXTT0=
EXTT1=
EXTT2=
EXTT3=
EXTT4=
EXTT5=
EXTT6=
EXTT7=
EXTT8=
EXTT9=
EXTT10=
EXTT11=
EXTT12=
EXTT13=
EXTT14=
EXTT15=
EXTT16=
EXTT17=
EXTT18=
EXTT19=
PLAYORDER=
